<?xml version="1.0" encoding="UTF-8"?>
<svg xmlns="http://www.w3.org/2000/svg" xmlns:xlink="http://www.w3.org/1999/xlink" viewBox="0 0 30 30" width="30px" height="30px">
<g id="surface1419383">
<path style=" stroke:none;fill-rule:nonzero;fill:rgb(89.019608%,1.960784%,7.450981%);fill-opacity:1;" d="M 12.601562 1.800781 C 6.960938 1.800781 2.398438 6.359375 2.398438 12 C 2.398438 17.640625 6.960938 22.199219 12.601562 22.199219 C 14.613281 22.199219 16.476562 21.609375 18.054688 20.605469 L 25.425781 27.976562 L 27.976562 25.425781 L 20.699219 18.167969 C 22.007812 16.453125 22.800781 14.328125 22.800781 12 C 22.800781 6.359375 18.238281 1.800781 12.601562 1.800781 Z M 12.601562 4.199219 C 16.917969 4.199219 20.398438 7.679688 20.398438 12 C 20.398438 16.320312 16.917969 19.800781 12.601562 19.800781 C 8.28125 19.800781 4.800781 16.320312 4.800781 12 C 4.800781 7.679688 8.28125 4.199219 12.601562 4.199219 Z M 12.601562 4.199219 "/>
</g>
</svg>
